<?xml version="1.0" encoding="iso-8859-1"?>
<!-- Generator: Adobe Illustrator 18.0.0, SVG Export Plug-In . SVG Version: 6.00 Build 0)  -->
<!DOCTYPE svg PUBLIC "-//W3C//DTD SVG 1.1//EN" "http://www.w3.org/Graphics/SVG/1.1/DTD/svg11.dtd">
<svg version="1.1" id="Capa_1" xmlns="http://www.w3.org/2000/svg" xmlns:xlink="http://www.w3.org/1999/xlink" x="0px" y="0px"
	 viewBox="0 0 491.813 491.813" style="enable-background:new 0 0 491.813 491.813;" xml:space="preserve">
<path d="M491.352,170.948L429.774,49.696c-0.725-1.427-2.19-2.325-3.79-2.325H65.829c-0.047,0-0.093,0.009-0.141,0.01
	c-0.082,0.003-0.163,0.01-0.245,0.017c-0.19,0.018-0.377,0.048-0.562,0.09c-0.057,0.014-0.114,0.021-0.17,0.036
	c-0.242,0.066-0.475,0.156-0.699,0.263c-0.021,0.01-0.044,0.014-0.065,0.024c-0.034,0.017-0.061,0.042-0.095,0.06
	c-0.189,0.1-0.37,0.212-0.542,0.34c-0.042,0.03-0.085,0.057-0.125,0.089c-0.189,0.15-0.365,0.318-0.527,0.501
	c-0.043,0.048-0.08,0.1-0.121,0.148c-0.118,0.146-0.227,0.301-0.327,0.463c-0.036,0.059-0.072,0.115-0.105,0.176
	c-0.021,0.037-0.046,0.071-0.065,0.109L0.461,170.948c-0.797,1.569-0.544,3.468,0.636,4.773l241.51,267.319
	c0.806,0.892,1.951,1.401,3.152,1.401c0,0,0.001,0,0.001,0c1.201,0,2.346-0.508,3.152-1.399l241.803-267.319
	C491.896,174.418,492.15,172.519,491.352,170.948z M455.063,202.467H383.62c-2.347,0-4.25,1.902-4.25,4.25
	c0,2.348,1.903,4.25,4.25,4.25h63.754l-186.93,206.655l106.913-240.499h110.63L455.063,202.467z M150.62,275.467h-47.954
	l-88.849-98.344h109.162l107.859,240.213L110.345,283.967h40.275c2.347,0,4.25-1.902,4.25-4.25
	C154.87,277.369,152.967,275.467,150.62,275.467z M16.587,157.967H87.62c2.347,0,4.25-1.902,4.25-4.25c0-2.348-1.903-4.25-4.25-4.25
	H20.904L65.776,61.11l53.113,107.514H11.175L16.587,157.967z M412.113,69.467H303.62c-2.347,0-4.25,1.902-4.25,4.25
	c0,2.348,1.903,4.25,4.25,4.25h104.195l-44.342,87.708L255.939,55.87h163.048L412.113,69.467z M165.332,138.967h52.288
	c2.347,0,4.25-1.902,4.25-4.25c0-2.348-1.903-4.25-4.25-4.25h-43.856l67.889-68.442l-0.04,106.599H135.916L165.332,138.967z
	 M301.62,143.967h28.696l24.146,24.656h-104.35l0.04-106.514l71.84,73.357H301.62c-2.347,0-4.25,1.902-4.25,4.25
	C297.37,142.065,299.273,143.967,301.62,143.967z M241.609,177.123l-0.092,243.245L132.296,177.123H241.609z M250.109,177.123
	h107.946l-108.038,243.03L250.109,177.123z M126.899,165.643L89.019,88.967h63.601c2.347,0,4.25-1.902,4.25-4.25
	c0-2.348-1.903-4.25-4.25-4.25h-67.8L72.669,55.87h163.115L126.899,165.643z M371.508,168.623L425.95,60.94l38.865,76.527H401.62
	c-2.347,0-4.25,1.902-4.25,4.25c0,2.348,1.903,4.25,4.25,4.25h67.511l11.506,22.656H371.508z"/>
<g>
</g>
<g>
</g>
<g>
</g>
<g>
</g>
<g>
</g>
<g>
</g>
<g>
</g>
<g>
</g>
<g>
</g>
<g>
</g>
<g>
</g>
<g>
</g>
<g>
</g>
<g>
</g>
<g>
</g>
</svg>
