<?xml version="1.0" encoding="iso-8859-1"?>
<!-- Generator: Adobe Illustrator 19.0.0, SVG Export Plug-In . SVG Version: 6.00 Build 0)  -->
<svg version="1.1" id="Layer_1" xmlns="http://www.w3.org/2000/svg" xmlns:xlink="http://www.w3.org/1999/xlink" x="0px" y="0px"
	 viewBox="0 0 356.744 356.744" style="enable-background:new 0 0 356.744 356.744;" xml:space="preserve">
<g>
	<path style="fill:#77B8E8;" d="M356.744,321.73c0,14.57-11.921,26.491-26.491,26.491h-53.104c-14.57,0-26.491-11.921-26.491-26.491
		V141.989c0-14.569,11.921-26.491,26.491-26.491h53.104c14.57,0,26.491,11.922,26.491,26.491V321.73z"/>
	<path style="fill:#009BDE;" d="M321.07,115.498H26.491C11.921,115.498,0,127.42,0,141.989V321.73
		c0,14.57,11.921,26.491,26.491,26.491H321.07c14.57,0,26.491-11.921,26.491-26.491V141.989
		C347.562,127.42,335.641,115.498,321.07,115.498z M205.151,139.891H142.41c-2.309,0-4.181-1.872-4.181-4.182
		c0-2.308,1.872-4.18,4.181-4.18h62.741c2.309,0,4.181,1.872,4.181,4.18C209.332,138.019,207.46,139.891,205.151,139.891z"/>
	<g>
		<rect x="36.598" y="170.568" style="fill:#FFFFFF;" width="103.55" height="109.867"/>
		<circle style="fill:#3E4A57;" cx="88.372" cy="213.757" r="25.366"/>
		<path style="fill:#3E4A57;" d="M88.372,248.16c-21.473,0-39.808,13.393-47.138,32.275h94.275
			C128.18,261.552,109.847,248.16,88.372,248.16z"/>
	</g>
	<rect x="164.52" y="170.568" style="fill:#333E48;" width="154.984" height="17.824"/>
	<rect x="164.52" y="207.678" style="fill:#333E48;" width="154.984" height="17.823"/>
	<rect x="146.591" y="64.589" style="fill:#F6C65B;" width="54.38" height="69.247"/>
	<g>
		<g>
			<path style="fill:#333E48;" d="M169.523,89.473c-22.355,0-40.476-18.121-40.476-40.476c0-22.353,18.12-40.475,40.476-40.475
				h8.517c22.356,0,40.476,18.122,40.476,40.475c0,22.354-18.12,40.476-40.476,40.476H169.523z"/>
		</g>
		<circle style="fill:#3E4A57;" cx="169.522" cy="48.998" r="40.475"/>
		<circle style="fill:#A4A9AD;" cx="169.522" cy="48.998" r="22.574"/>
	</g>
	<rect x="250.658" y="261.148" style="fill:#FFFFFF;" width="68.846" height="19.287"/>
</g>
<g>
</g>
<g>
</g>
<g>
</g>
<g>
</g>
<g>
</g>
<g>
</g>
<g>
</g>
<g>
</g>
<g>
</g>
<g>
</g>
<g>
</g>
<g>
</g>
<g>
</g>
<g>
</g>
<g>
</g>
</svg>
