<?xml version="1.0" encoding="iso-8859-1"?>
<!-- Generator: Adobe Illustrator 19.0.0, SVG Export Plug-In . SVG Version: 6.00 Build 0)  -->
<svg version="1.1" id="Layer_1" xmlns="http://www.w3.org/2000/svg" xmlns:xlink="http://www.w3.org/1999/xlink" x="0px" y="0px"
	 viewBox="0 0 340 340" style="enable-background:new 0 0 340 340;" xml:space="preserve">
<g id="XMLID_481_">
	<g>
		<g>
			<path d="M170,1.378c-65.781,0-119.297,53.517-119.297,119.297c0,27.144,8.896,52.708,25.726,73.928
				c21.464,27.063,83.759,91.194,86.401,93.911l7.169,7.375l7.17-7.374c2.643-2.718,64.958-66.864,86.424-93.935
				c16.815-21.204,25.703-46.76,25.703-73.905C289.297,54.895,235.781,1.378,170,1.378z M247.923,182.154
				c-16.648,20.995-60.591,67.003-77.923,85c-17.327-17.993-61.254-63.989-77.901-84.978c-13.998-17.649-21.396-38.915-21.396-61.5
				c0-54.753,44.544-99.297,99.297-99.297s99.297,44.544,99.297,99.297C269.297,143.262,261.906,164.521,247.923,182.154z"/>
			<path d="M170,47.88c-39.422,0-71.495,32.072-71.495,71.494c0,39.422,32.072,71.495,71.495,71.495
				c39.423,0,71.495-32.072,71.495-71.495C241.495,79.953,209.422,47.88,170,47.88z M170,170.869
				c-28.394,0-51.495-23.101-51.495-51.495c0-28.394,23.101-51.494,51.495-51.494s51.495,23.1,51.495,51.494
				C221.495,147.768,198.394,170.869,170,170.869z"/>
			<path d="M313.094,45.535L297.61,58.193C312.048,75.856,320,98.137,320,120.93c0,22.587-7.391,43.846-21.374,61.479l15.671,12.427
				C331.112,173.631,340,148.075,340,120.93C340,93.536,330.445,66.76,313.094,45.535z"/>
			<path d="M26.906,45.535C9.555,66.76,0,93.536,0,120.93c0,27.145,8.888,52.701,25.703,73.905l15.671-12.427
				C27.391,164.775,20,143.517,20,120.93c0-22.793,7.952-45.074,22.39-62.737L26.906,45.535z"/>
			<rect x="110" y="318.622" width="120" height="20"/>
		</g>
	</g>
</g>
<g>
</g>
<g>
</g>
<g>
</g>
<g>
</g>
<g>
</g>
<g>
</g>
<g>
</g>
<g>
</g>
<g>
</g>
<g>
</g>
<g>
</g>
<g>
</g>
<g>
</g>
<g>
</g>
<g>
</g>
</svg>
