<?xml version="1.0" encoding="iso-8859-1"?>
<!-- Generator: Adobe Illustrator 19.0.0, SVG Export Plug-In . SVG Version: 6.00 Build 0)  -->
<svg version="1.1" id="Layer_1" xmlns="http://www.w3.org/2000/svg" xmlns:xlink="http://www.w3.org/1999/xlink" x="0px" y="0px"
	 viewBox="0 0 495 495" style="enable-background:new 0 0 495 495;" xml:space="preserve">
<g>
	<path style="fill:#FFEB99;" d="M293.056,247.5c0-109.382-88.672-198.054-198.054-198.054c-17.072,0-33.642,2.166-49.446,6.229
		c55.602,45.385,91.113,114.454,91.113,191.825s-35.51,146.44-91.113,191.825c15.804,4.063,32.373,6.229,49.446,6.229
		C204.384,445.554,293.056,356.882,293.056,247.5z"/>
	<path style="fill:#FFDE55;" d="M201.944,0C142.624,0,88.186,20.878,45.556,55.675c15.804-4.063,32.373-6.229,49.446-6.229
		c109.382,0,198.054,88.672,198.054,198.054S204.384,445.554,95.002,445.554c-17.072,0-33.642-2.166-49.446-6.229
		C88.186,474.122,142.624,495,201.944,495c136.69,0,247.5-110.81,247.5-247.5S338.634,0,201.944,0z"/>
</g>
<g>
</g>
<g>
</g>
<g>
</g>
<g>
</g>
<g>
</g>
<g>
</g>
<g>
</g>
<g>
</g>
<g>
</g>
<g>
</g>
<g>
</g>
<g>
</g>
<g>
</g>
<g>
</g>
<g>
</g>
</svg>
