<?xml version="1.0" encoding="iso-8859-1"?>
<!-- Generator: Adobe Illustrator 18.0.0, SVG Export Plug-In . SVG Version: 6.00 Build 0)  -->
<!DOCTYPE svg PUBLIC "-//W3C//DTD SVG 1.1//EN" "http://www.w3.org/Graphics/SVG/1.1/DTD/svg11.dtd">
<svg version="1.1" id="Capa_1" xmlns="http://www.w3.org/2000/svg" xmlns:xlink="http://www.w3.org/1999/xlink" x="0px" y="0px"
	 viewBox="0 0 491.148 491.148" style="enable-background:new 0 0 491.148 491.148;" xml:space="preserve">
<g>
	<path d="M216.396,252.217c-11.836,0-21.466,9.63-21.466,21.467c0,11.836,9.629,21.466,21.466,21.466
		c11.837,0,21.467-9.629,21.467-21.466C237.862,261.847,228.232,252.217,216.396,252.217z M216.396,286.649
		c-7.149,0-12.966-5.816-12.966-12.966c0-7.15,5.816-12.967,12.966-12.967c7.15,0,12.967,5.817,12.967,12.967
		C229.362,280.833,223.545,286.649,216.396,286.649z"/>
	<path d="M464.13,197.664h-32.585V30.074C431.545,13.491,418.054,0,401.472,0H31.324C14.741,0,1.25,13.491,1.25,30.074v265.883
		c0,16.583,13.491,30.074,30.074,30.074h129.511l-15.448,59.592h-1.221c-12.84,0-23.286,10.447-23.286,23.288v17.303
		c0,2.347,1.903,4.25,4.25,4.25h182.535c2.347,0,4.25-1.903,4.25-4.25v-17.303c0-12.841-10.447-23.288-23.289-23.288h-1.22
		l-15.449-59.592h48.057V465.38c0,14.209,11.56,25.768,25.769,25.768H464.13c14.209,0,25.768-11.56,25.768-25.77V223.433
		C489.898,209.224,478.339,197.664,464.13,197.664z M328.514,227.684l152.885-0.001v201.443H328.514V227.684z M480.848,219.183
		l-151.783,0.001c1.901-7.47,8.665-13.02,16.718-13.02H464.13C472.183,206.164,478.946,211.713,480.848,219.183z M345.782,197.664
		c-14.209,0-25.769,11.56-25.769,25.77v10.321H9.75V33.16h413.295v164.504H345.782z M31.324,8.5h370.147
		c10.023,0,18.446,6.881,20.858,16.16H10.465C12.877,15.381,21.301,8.5,31.324,8.5z M303.415,408.911v13.053H129.38v-13.053
		c0-8.154,6.633-14.788,14.786-14.788h144.46C296.781,394.123,303.415,400.757,303.415,408.911z M278.626,385.623H154.169
		l15.448-59.592h93.56L278.626,385.623z M31.324,317.531c-11.896,0-21.574-9.678-21.574-21.574v-26.31h65.618
		c2.347,0,4.25-1.903,4.25-4.25c0-2.347-1.903-4.25-4.25-4.25H9.75v-18.893h310.264v75.276H31.324z M464.13,482.648H345.782
		c-9.522,0-17.269-7.747-17.269-17.268v-8.548h40.037c2.347,0,4.25-1.903,4.25-4.25s-1.903-4.25-4.25-4.25h-40.037v-10.706h152.885
		v27.753C481.398,474.901,473.652,482.648,464.13,482.648z"/>
	<path d="M404.956,443.603c-8.596,0-15.59,6.995-15.59,15.592c0,8.596,6.994,15.59,15.59,15.59c8.597,0,15.592-6.994,15.592-15.591
		C420.548,450.597,413.553,443.603,404.956,443.603z M404.956,466.284c-3.909,0-7.09-3.181-7.09-7.09
		c0-3.911,3.181-7.092,7.09-7.092c3.911,0,7.092,3.181,7.092,7.091C412.048,463.103,408.867,466.284,404.956,466.284z"/>
	<path d="M459.369,250.47h-41.718c-2.347,0-4.25,1.903-4.25,4.25v38.465c0,2.347,1.903,4.25,4.25,4.25h41.718
		c2.347,0,4.25-1.903,4.25-4.25V254.72C463.619,252.373,461.716,250.47,459.369,250.47z M455.119,288.935h-33.218V258.97h33.218
		V288.935z"/>
	<path d="M353.478,297.435h41.745c2.347,0,4.25-1.903,4.25-4.25V254.72c0-2.347-1.903-4.25-4.25-4.25h-41.745
		c-2.347,0-4.25,1.903-4.25,4.25v38.465C349.228,295.532,351.13,297.435,353.478,297.435z M357.728,258.97h33.245v29.965h-33.245
		V258.97z"/>
	<path d="M459.369,310.397H353.478c-2.347,0-4.25,1.903-4.25,4.25v33.789c0,2.347,1.903,4.25,4.25,4.25h105.892
		c2.347,0,4.25-1.903,4.25-4.25v-33.789C463.619,312.3,461.716,310.397,459.369,310.397z M455.119,344.187h-97.392v-25.289h97.392
		V344.187z"/>
	<path d="M459.369,365.99H353.478c-2.347,0-4.25,1.903-4.25,4.25s1.903,4.25,4.25,4.25h105.892c2.347,0,4.25-1.903,4.25-4.25
		S461.716,365.99,459.369,365.99z"/>
	<path d="M459.369,384.387H353.478c-2.347,0-4.25,1.903-4.25,4.25s1.903,4.25,4.25,4.25h105.892c2.347,0,4.25-1.903,4.25-4.25
		S461.716,384.387,459.369,384.387z"/>
	<path d="M390.106,48.02h-229c-2.347,0-4.25,1.903-4.25,4.25v46c0,2.347,1.903,4.25,4.25,4.25h229c2.347,0,4.25-1.903,4.25-4.25v-46
		C394.356,49.922,392.454,48.02,390.106,48.02z M385.856,94.02h-220.5v-37.5h220.5V94.02z"/>
	<path d="M43.106,102.52h86c2.347,0,4.25-1.903,4.25-4.25v-46c0-2.347-1.903-4.25-4.25-4.25h-86c-2.347,0-4.25,1.903-4.25,4.25v46
		C38.856,100.617,40.759,102.52,43.106,102.52z M47.356,56.52h77.5v37.5h-77.5V56.52z"/>
	<path d="M390.106,119.687h-347c-2.347,0-4.25,1.903-4.25,4.25v20.067c0,2.347,1.903,4.25,4.25,4.25h347
		c2.347,0,4.25-1.903,4.25-4.25v-20.067C394.356,121.589,392.454,119.687,390.106,119.687z M385.856,139.754h-338.5v-11.567h338.5
		V139.754z"/>
	<path d="M125.106,165.828h-82c-2.347,0-4.25,1.903-4.25,4.25s1.903,4.25,4.25,4.25h82c2.347,0,4.25-1.903,4.25-4.25
		S127.454,165.828,125.106,165.828z"/>
	<path d="M125.106,187.828h-82c-2.347,0-4.25,1.903-4.25,4.25s1.903,4.25,4.25,4.25h82c2.347,0,4.25-1.903,4.25-4.25
		S127.454,187.828,125.106,187.828z"/>
	<path d="M389.115,165.828H162.17c-2.347,0-4.25,1.903-4.25,4.25s1.903,4.25,4.25,4.25h226.945c2.347,0,4.25-1.903,4.25-4.25
		S391.462,165.828,389.115,165.828z"/>
	<path d="M250.106,187.828H162.17c-2.347,0-4.25,1.903-4.25,4.25s1.903,4.25,4.25,4.25h87.936c2.347,0,4.25-1.903,4.25-4.25
		S252.454,187.828,250.106,187.828z"/>
</g>
<g>
</g>
<g>
</g>
<g>
</g>
<g>
</g>
<g>
</g>
<g>
</g>
<g>
</g>
<g>
</g>
<g>
</g>
<g>
</g>
<g>
</g>
<g>
</g>
<g>
</g>
<g>
</g>
<g>
</g>
</svg>
